<svg width="515" height="1024" viewBox="0 0 515 1024" fill="none" xmlns="http://www.w3.org/2000/svg">
<path d="M-2.27463 506C-3.27463 537.333 11.4254 598.7 78.2254 593.5C161.725 587 259.225 609.5 264.725 567.5C270.225 525.5 316.225 445.5 258.225 435.5C200.225 425.5 73.7253 472 139.725 523.5C205.725 575 300.225 492.5 309.725 479C317.123 468.487 360.725 361.5 290.225 360.5C219.725 359.5 -25.7746 418 -2.27463 352" stroke="#FF66FF" stroke-opacity="0.6" stroke-width="2"/>
<path d="M18.3039 1028C20.5752 1009.85 34.8387 975.935 73.7228 985.528C122.328 997.52 132.776 1019.51 156.397 985.528C180.018 951.551 119.148 902.083 110.971 896.587C102.795 891.091 26.4805 950.551 22.3922 911.077C18.3039 871.604 90.0759 910.078 100.524 836.627C110.971 763.176 153.671 778.166 160.485 776.167C167.299 774.168 221.355 805.148 209.544 751.183C197.734 697.219 122.328 746.686 100.524 710.71C78.7195 674.734 -12.131 612.775 27.389 559.81C66.909 506.846 176.838 567.805 126.87 502.349C76.9025 436.892 1.49661 508.844 30.5688 450.883C59.6409 392.921 138.227 391.922 121.874 339.457C108.791 297.484 34.657 278.33 -0.774658 274" stroke="#6600FF" stroke-opacity="0.6"/>
<path d="M-4.77455 607.5C22.8921 612.833 73.4255 631.1 54.2255 661.5C30.2255 699.5 5.22546 677 19.2255 711.5C33.2255 746 113.725 722 104.725 711.5C95.7255 701 105.225 663 136.225 677C167.225 691 181.225 712 169.225 731C157.225 750 146.225 809.5 104.725 804C63.2255 798.5 74.2255 786 41.7255 799C9.22546 812 13.7255 833 27.7255 842C41.7255 851 88.7255 912.5 67.7255 930.5C46.7255 948.5 -6.27454 978.5 10.7255 990.5C27.7255 1002.5 17.7255 1050 61.2255 1032C104.725 1014 108.039 974.3 127.725 968C152.725 960 157.522 904.631 152.725 897C141.725 879.5 105.225 847 79.7255 854C54.2255 861 48.7255 906 19.2255 880C-10.2745 854 -11.7745 740.5 3.72546 744.5C16.1255 747.7 3.89212 705.5 -3.77454 684" stroke="#CC33FF" stroke-opacity="0.5" stroke-width="2"/>
<path d="M0.225338 229.447C52.0587 226.613 146.025 235.947 107.225 295.947C58.7253 370.947 -19.2747 403.447 30.7253 418.447C80.7253 433.447 105.225 346.947 141.725 376.947C178.225 406.947 201.225 421.947 213.725 376.947C226.225 331.947 175.725 249.947 248.725 270.947C321.725 291.947 445.725 286.947 408.225 324.947C370.725 362.947 174.225 415.5 177.725 440.5C181.225 465.5 158.51 532.403 123.225 560.5C96.2253 582 -7.27466 488 56.7253 474.5C120.725 461 253.225 452 248.725 520C244.225 588 232.725 633.947 220.725 649.447C208.725 664.947 124.225 701.447 115.725 689.447C107.225 677.447 66.7253 624.447 104.225 613.947C141.725 603.447 131.225 704.447 110.225 722.947C89.2253 741.447 26.2253 768.447 68.2253 771.447C110.225 774.447 105.725 835.947 68.2253 818.947C30.7253 801.947 33.2253 791.447 23.7253 788.447C14.2253 785.447 -26.2747 689.447 23.7253 689.447C63.7253 689.447 23.392 608.447 -1.77466 567.947" stroke="#6600CC" stroke-opacity="0.35"/>
<path d="M224.29 1.2739C276.706 22.6241 354.04 70.3659 244.043 90.5315C106.547 115.738 129.398 40.5307 145.278 33.919C161.158 27.3074 -54.5756 -24.3463 10.493 90.5315C75.5616 205.409 8.94378 315.741 119.328 278.138C229.712 240.534 335.061 252.517 326.54 290.121C318.02 327.725 217.318 219.872 213.445 194.665C209.572 169.458 214.607 123.59 236.297 127.309C257.986 131.028 289.746 180.615 343.97 141.772C398.193 102.928 363.335 64.9112 434.213 67.8038C505.092 70.6965 513.225 41.3572 513.225 12.4311C513.225 -10.7098 467.781 -14.0156 445.058 -12.7759" stroke="#FF33FF" stroke-opacity="0.5" stroke-width="2"/>
<path d="M76.9921 4C62.0376 23.5003 41.4811 66.2315 78.8911 81.1535C125.654 99.806 163.396 144.318 126.366 173.992C89.3355 203.667 95.5072 181.623 93.1335 234.613C90.7597 287.603 136.335 372.387 178.113 333.81C219.891 295.233 320.062 231.621 306.532 132C293.001 32.3787 188.558 150.13 231.523 201C274.487 251.87 401.014 225.588 412.171 162C423.327 98.4119 401.99 52.8807 379.44 35.5C356.889 18.1193 201.138 -15.5003 186.896 52.3269C172.653 120.154 194.729 226.134 93.1335 345.68C11.857 441.316 54.8373 496.313 86.487 511.857C114.022 513.411 165.627 502.954 151.765 448.693C134.436 380.865 50.7201 299.142 -5.77466 286" stroke="#3300FF" stroke-opacity="0.3" stroke-width="3"/>
<path d="M-3.77455 65.5C6.22545 74.5 29.0254 88.2 40.2254 71C54.2254 49.5 46.2254 34.5 40.2254 31.5C34.2254 28.5 66.2254 -3.00004 84.7254 18.5C103.225 40 128.225 40.5 155.725 36C183.225 31.5 204.725 76.5 199.225 102C193.725 127.5 134.725 174 95.2254 171.5C55.7254 169 57.2254 111.5 91.2254 102C125.225 92.5 138.225 54.5 114.725 52C91.2254 49.5 62.2254 70 67.2254 83C72.2254 96 66.2254 140.5 40.2254 158C14.2254 175.5 38.2254 232.5 70.7254 223.5C103.225 214.5 82.2254 139.5 181.225 195C280.225 250.5 104.225 366 83.7254 334.5C63.2254 303 62.7255 264.5 6.22546 244C-50.2745 223.5 -11.2746 217 -5.77461 210" stroke="#9933CC" stroke-opacity="0.35"/>
</svg>
