<svg width="64" height="64" viewBox="0 0 64 64" fill="none" xmlns="http://www.w3.org/2000/svg">
<circle cx="32" cy="32" r="31.75" fill="#9933CC" fill-opacity="0.5" stroke="#9933CC" stroke-width="0.5"/>
<path d="M38.6923 42C38.4149 42 38.1803 41.9147 37.9883 41.744C37.8176 41.552 37.7323 41.3173 37.7323 41.04V32.08H30.9803V31.76C29.7429 31.76 28.5589 31.4613 27.4283 30.864C26.3189 30.2453 25.4016 29.392 24.6763 28.304C23.9723 27.216 23.6203 25.9787 23.6203 24.592C23.6203 23.0987 23.9616 21.7867 24.6443 20.656C25.3269 19.5253 26.2656 18.64 27.4603 18C28.6763 17.3387 30.0629 17.008 31.6203 17.008H38.6923C38.9909 17.008 39.2256 17.0933 39.3963 17.264C39.5669 17.4347 39.6523 17.6693 39.6523 17.968V41.04C39.6523 41.3173 39.5669 41.552 39.3963 41.744C39.2256 41.9147 38.9909 42 38.6923 42ZM24.6123 42C24.1216 42 23.7909 41.8613 23.6203 41.584C23.4709 41.3067 23.5349 40.9547 23.8123 40.528L30.1483 30.8L32.1323 31.248L25.4763 41.488C25.3909 41.6373 25.2843 41.7653 25.1562 41.872C25.0283 41.9573 24.8469 42 24.6123 42ZM31.6203 30.16H37.7323V18.928H31.6203C30.4469 18.928 29.4016 19.1733 28.4843 19.664C27.5669 20.1333 26.8416 20.7947 26.3083 21.648C25.7963 22.5013 25.5403 23.4827 25.5403 24.592C25.5403 25.68 25.7963 26.64 26.3083 27.472C26.8416 28.304 27.5669 28.9653 28.4843 29.456C29.4016 29.9253 30.4469 30.16 31.6203 30.16Z" fill="black"/>
</svg>
