<svg width="50" height="50" viewBox="0 0 50 50" fill="none" xmlns="http://www.w3.org/2000/svg">
<path d="M49.75 25C49.75 38.669 38.669 49.75 25 49.75C11.331 49.75 0.25 38.669 0.25 25C0.25 11.331 11.331 0.25 25 0.25C38.669 0.25 49.75 11.331 49.75 25Z" fill="#9933CC" stroke="black" stroke-width="0.5"/>
<path d="M25.0834 43.0002C32.6667 42.8335 35.4167 41.0835 37 40.1669C39.0834 38.9607 41.4167 37.5002 41.6667 33.1669C41.6667 30.5589 40.0686 28.0577 36.9274 26.2136C33.7862 24.3695 29.5258 23.3276 25.0834 23.3276V26.8429C27.9403 26.8429 30.6802 27.5092 32.7004 28.6952C34.7205 29.8811 35.8554 31.4896 35.8554 33.1668C35.8554 34.8441 34.6869 36.2309 32.6667 37.4169C30.6466 38.6028 27.9403 39.4907 25.0834 39.4907L25.0834 43.0002Z" fill="#E5E5E5"/>
<path d="M25.0834 7.16681C17.5 7.33348 14.75 9.08348 13.1667 10.0001C11.0834 11.2063 8.75004 12.6668 8.50004 17.0001C8.50004 19.6081 10.0981 22.1093 13.2393 23.9534C16.3806 25.7975 20.641 26.8394 25.0834 26.8394V23.324C22.2264 23.324 19.4865 22.6578 17.4664 21.4718C15.4462 20.2859 14.3113 18.6773 14.3113 17.0001C14.3113 15.3229 15.4799 13.9361 17.5 12.7501C19.5202 11.5642 22.2264 10.6762 25.0834 10.6762L25.0834 7.16681Z" fill="#E5E5E5"/>
<path d="M13.1666 39.4998L25.1666 39.4907V42.9998H13.1666V39.4998Z" fill="#E5E5E5"/>
<path d="M25 7.17106L36.5 7.1665V10.6665L25 10.6795V7.17106Z" fill="#E5E5E5"/>
</svg>
