<svg width="518" height="1024" viewBox="0 0 518 1024" fill="none" xmlns="http://www.w3.org/2000/svg">
<path d="M516.5 530.025C517.5 498.692 502.8 437.325 436 442.525C352.5 449.025 255 426.525 249.5 468.525C244 510.525 198 590.525 256 600.525C314 610.525 440.5 564.025 374.5 512.525C308.5 461.025 214 543.525 204.5 557.025C197.102 567.538 153.5 674.525 224 675.525C294.5 676.525 540 618.025 516.5 684.025" stroke="#FF66FF" stroke-opacity="0.6" stroke-width="2"/>
<path d="M495.921 8.0254C493.65 26.18 479.387 60.0909 440.503 50.4972C391.898 38.5052 381.45 16.5197 357.829 50.4972C334.207 84.4748 395.077 133.942 403.254 139.438C411.43 144.935 487.745 85.4741 491.833 124.948C495.921 164.422 424.149 125.947 413.702 199.399C403.254 272.85 360.554 257.86 353.74 259.858C346.927 261.857 292.87 230.878 304.681 284.842C316.492 338.806 391.898 289.339 413.702 325.315C435.506 361.291 526.356 423.25 486.836 476.215C447.316 529.18 337.387 468.22 387.355 533.677C437.323 599.133 512.729 527.181 483.657 585.143C454.584 643.104 375.999 644.104 392.352 696.569C405.434 738.541 479.568 757.695 515 762.025" stroke="#6600FF" stroke-opacity="0.6"/>
<path d="M519 428.525C491.333 423.192 440.8 404.925 460 374.525C484 336.525 509 359.025 495 324.525C481 290.025 400.5 314.025 409.5 324.525C418.5 335.025 409 373.025 378 359.025C347 345.025 333 324.025 345 305.025C357 286.025 368 226.525 409.5 232.025C451 237.525 440 250.025 472.5 237.025C505 224.025 500.5 203.025 486.5 194.025C472.5 185.025 425.5 123.525 446.5 105.525C467.5 87.5254 520.5 57.5254 503.5 45.5254C486.5 33.5254 496.5 -13.9746 453 4.02539C409.5 22.0254 406.187 61.7257 386.5 68.0254C361.5 76.0254 356.703 131.394 361.5 139.025C372.5 156.525 409 189.025 434.5 182.025C460 175.025 465.5 130.025 495 156.025C524.5 182.025 526 295.525 510.5 291.525C498.1 288.325 510.333 330.525 518 352.025" stroke="#CC33FF" stroke-opacity="0.5" stroke-width="2"/>
<path d="M514 806.579C462.167 809.412 368.2 800.079 407 740.079C455.5 665.079 533.5 632.579 483.5 617.579C433.5 602.579 409 689.079 372.5 659.079C336 629.079 313 614.079 300.5 659.079C288 704.079 338.5 786.079 265.5 765.079C192.5 744.079 68.5 749.079 106 711.079C143.5 673.079 340 620.525 336.5 595.525C333 570.525 355.715 503.623 391 475.525C418 454.025 521.5 548.025 457.5 561.525C393.5 575.025 261 584.025 265.5 516.025C270 448.025 281.5 402.079 293.5 386.579C305.5 371.079 390 334.579 398.5 346.579C407 358.579 447.5 411.579 410 422.079C372.5 432.579 383 331.579 404 313.079C425 294.579 488 267.579 446 264.579C404 261.579 408.5 200.079 446 217.079C483.5 234.079 481 244.579 490.5 247.579C500 250.579 540.5 346.579 490.5 346.579C450.5 346.579 490.833 427.579 516 468.079" stroke="#6600CC" stroke-opacity="0.35"/>
<path d="M289.936 1034.75C237.519 1013.4 160.186 965.66 270.183 945.494C407.679 920.287 384.827 995.495 368.947 1002.11C353.068 1008.72 568.801 1060.37 503.732 945.494C438.664 830.616 505.282 720.284 394.897 757.888C284.513 795.492 179.164 783.508 187.685 745.904C196.206 708.3 296.907 816.153 300.78 841.36C304.653 866.567 299.618 912.436 277.929 908.717C256.239 904.997 224.48 855.41 170.256 894.253C116.032 933.097 150.89 971.114 80.0118 968.222C9.13356 965.329 0.99999 994.668 0.99999 1023.59C0.99999 1046.74 46.4447 1050.04 69.1671 1048.8" stroke="#FF33FF" stroke-opacity="0.5" stroke-width="2"/>
<path d="M437.233 1032.03C452.188 1012.53 472.744 969.794 435.334 954.872C388.572 936.219 350.83 891.708 387.86 862.033C424.89 832.359 418.718 854.403 421.092 801.413C423.466 748.423 377.89 663.638 336.112 702.215C294.335 740.792 194.163 804.404 207.694 904.025C221.224 1003.65 325.667 885.896 282.703 835.025C239.738 784.155 113.211 810.437 102.055 874.025C90.8983 937.613 112.235 983.145 134.785 1000.53C157.336 1017.91 313.087 1051.53 327.33 983.698C341.572 915.871 319.496 809.891 421.092 690.345C502.368 594.709 459.388 539.712 427.738 524.169C400.203 522.614 348.598 533.071 362.461 587.333C379.789 655.16 463.505 736.884 520 750.025" stroke="#3300FF" stroke-opacity="0.3" stroke-width="3"/>
<path d="M518 970.525C508 961.525 485.2 947.825 474 965.025C460 986.525 468 1001.53 474 1004.53C480 1007.53 448 1039.03 429.5 1017.53C411 996.025 386 995.525 358.5 1000.03C331 1004.53 309.5 959.525 315 934.025C320.5 908.525 379.5 862.025 419 864.525C458.5 867.025 457 924.525 423 934.025C389 943.525 376 981.525 399.5 984.025C423 986.525 452 966.025 447 953.025C442 940.025 448 895.525 474 878.025C500 860.525 476 803.525 443.5 812.525C411 821.525 432 896.525 333 841.025C234 785.525 410 670.025 430.5 701.525C451 733.025 451.5 771.525 508 792.025C564.5 812.525 525.5 819.025 520 826.025" stroke="#9933CC" stroke-opacity="0.35"/>
</svg>
