<svg width="100" height="100" viewBox="0 0 100 100" fill="none" xmlns="http://www.w3.org/2000/svg">
<path d="M99.75 50C99.75 77.4762 77.4762 99.75 50 99.75C22.5238 99.75 0.25 77.4762 0.25 50C0.25 22.5238 22.5238 0.25 50 0.25C77.4762 0.25 99.75 22.5238 99.75 50Z" fill="#9933CC" stroke="black" stroke-width="0.5"/>
<path d="M50.1667 86C65.3334 85.6667 70.8334 82.1667 74.0001 80.3333C78.1667 77.9211 82.8334 75 83.3334 66.3333C83.3334 61.1174 80.1373 56.1151 73.8548 52.4269C67.5724 48.7387 59.0515 46.6549 50.1668 46.6549V53.6855C55.8806 53.6855 61.3604 55.0181 65.4008 57.39C69.4411 59.7619 71.7109 62.9789 71.7109 66.3333C71.7109 69.6877 69.3737 72.4614 65.3334 74.8333C61.2931 77.2053 55.8806 78.9811 50.1668 78.9811L50.1667 86Z" fill="#E5E5E5"/>
<path d="M50.1667 14.3334C35.0001 14.6667 29.5001 18.1667 26.3334 20C22.1667 22.4123 17.5001 25.3334 17.0001 34C17.0001 39.216 20.1962 44.2183 26.4787 47.9065C32.7611 51.5947 41.282 53.6785 50.1667 53.6785V46.6478C44.4529 46.6478 38.973 45.3153 34.9327 42.9434C30.8924 40.5715 28.6226 37.3545 28.6226 34C28.6226 30.6456 30.9598 27.872 35.0001 25.5C39.0404 23.1281 44.4529 21.3522 50.1667 21.3522L50.1667 14.3334Z" fill="#E5E5E5"/>
<path d="M26.3333 79L50.3333 78.9818V86H26.3333V79Z" fill="#E5E5E5"/>
<path d="M50 14.3425L73 14.3334V21.3334L50 21.3594V14.3425Z" fill="#E5E5E5"/>
</svg>
