<svg width="686" height="748" viewBox="0 0 686 748" fill="none" xmlns="http://www.w3.org/2000/svg">
<path d="M687.918 391C610.318 511.4 650.918 573.833 680.918 590C743.418 614.333 822.418 670 638.418 698C408.418 733 439.918 613 465.918 561.5C491.918 510 362.418 505.5 332.418 536.5C302.418 567.5 191.918 701.5 392.418 722C592.918 742.5 575.918 718.5 680.918 741C764.918 759 772.918 735.833 766.418 722" stroke="#9933CC" stroke-opacity="0.6"/>
<path d="M685.5 113C642.334 130.167 559.6 189.6 574 290C592 415.5 847 511.5 710.5 564.5C574 617.5 498 463 462.5 484.5C427 506 365 562 338.5 654.5C317.3 728.5 502 750.333 597 752" stroke="#3300FF" stroke-width="0.5"/>
<path d="M1 747.5C102 699 77.5 748.5 154 672C230.5 595.5 315.5 626 348.5 635.5C381.5 645 574.5 709.5 619.5 662.5C664.5 615.5 496 388 582 368C668 348 715 320.5 718.5 293.5" stroke="#CC33FF" stroke-opacity="0.7" stroke-width="0.5"/>
<path d="M579.5 748.5C599.9 684.1 652.667 665.667 676.5 664.5C706.667 666 746.6 655.2 665 600C563 531 500 678.5 500 592C500 505.5 420.5 461 500 367.5C579.5 274 610.5 322.5 665 241.5C719.5 160.5 598 109.5 639 58C671.8 16.8 698 2.5 707 0.5" stroke="#6600CC" stroke-opacity="0.4"/>
<path d="M276 751.5C415 656 376 649 426.5 639C477 629 626.5 652.5 609 575C591.5 497.5 474 433 545.5 407C602.7 386.2 671.333 510.333 698.5 575" stroke="#FF66FF"/>
</svg>
